<?xml version="1.0" encoding="UTF-8" standalone="no"?>
<svg
   viewBox="0 0 448 512"
   version="1.1"
   id="svg1"
   sodipodi:docname="plus.svg"
   inkscape:version="1.3.1 (9b9bdc1480, 2023-11-25, custom)"
   xmlns:inkscape="http://www.inkscape.org/namespaces/inkscape"
   xmlns:sodipodi="http://sodipodi.sourceforge.net/DTD/sodipodi-0.dtd"
   xmlns="http://www.w3.org/2000/svg"
   xmlns:svg="http://www.w3.org/2000/svg">
  <defs
     id="defs1" />
  <sodipodi:namedview
     id="namedview1"
     pagecolor="#ffffff"
     bordercolor="#000000"
     borderopacity="0.25"
     inkscape:showpageshadow="2"
     inkscape:pageopacity="0.0"
     inkscape:pagecheckerboard="0"
     inkscape:deskcolor="#d1d1d1"
     showgrid="false"
     inkscape:zoom="3.703125"
     inkscape:cx="223.86498"
     inkscape:cy="256"
     inkscape:window-width="3840"
     inkscape:window-height="2096"
     inkscape:window-x="3840"
     inkscape:window-y="27"
     inkscape:window-maximized="1"
     inkscape:current-layer="svg1" />
  <!--!Font Awesome Free 6.5.1 by @fontawesome - https://fontawesome.com License - https://fontawesome.com/license/free Copyright 2024 Fonticons, Inc.-->
  <path
     fill="#63e6be"
     d="M 186.1421,70.685613 C 186.1421,58.137634 176.00447,48 163.45649,48 150.90851,48 140.77087,58.137634 140.77087,70.685613 V 172.77087 H 38.685613 C 26.137634,172.77087 16,182.90851 16,195.45649 16,208.00447 26.137634,218.1421 38.685613,218.1421 H 140.77087 v 102.08526 c 0,12.54798 10.13764,22.68561 22.68562,22.68561 12.54798,0 22.68561,-10.13763 22.68561,-22.68561 V 218.1421 h 102.08526 c 12.54798,0 22.68561,-10.13763 22.68561,-22.68561 0,-12.54798 -10.13763,-22.68562 -22.68561,-22.68562 H 186.1421 Z"
     id="path1"
     style="stroke-width:0.708925;stroke:#000000;stroke-opacity:1" />
  <path
     fill="#63e6be"
     d="m 273.36032,157.2226 c 0,-12.54798 -10.13763,-22.68561 -22.68561,-22.68561 -12.54798,0 -22.68562,10.13763 -22.68562,22.68561 V 259.30786 H 125.90383 c -12.54798,0 -22.68561,10.13764 -22.68561,22.68562 0,12.54798 10.13763,22.68561 22.68561,22.68561 h 102.08526 v 102.08526 c 0,12.54798 10.13764,22.68561 22.68562,22.68561 12.54798,0 22.68561,-10.13763 22.68561,-22.68561 V 304.67909 h 102.08526 c 12.54798,0 22.68561,-10.13763 22.68561,-22.68561 0,-12.54798 -10.13763,-22.68562 -22.68561,-22.68562 H 273.36032 Z"
     id="path1-7"
     style="stroke-width:0.708925;stroke:#000000;stroke-opacity:1" />
</svg>
